<?xml version="1.0" encoding="UTF-8"?>
<svg version="1.1" xmlns="http://www.w3.org/2000/svg" width="600" height="600">
<path d="M0 0 C3.23300086 1.47593517 5.72160787 3.26592945 8 6 C10.5320172 13.59605161 9 21.99305857 9 30 C31.77 30 54.54 30 78 30 C78 23.73 78 17.46 78 11 C82.76315789 1.47368421 82.76315789 1.47368421 87 0 C92.02204768 -0.66455907 95.81977068 -0.55792659 100.4375 1.625 C103 4 103 4 106 10 C106 16.6 106 23.2 106 30 C121.51 30 137.02 30 153 30 C154.30475618 32.60951236 154.11301572 34.52701285 154.09765625 37.4453125 C154.09443359 38.52167969 154.09121094 39.59804688 154.08789062 40.70703125 C154.07951172 41.83496094 154.07113281 42.96289062 154.0625 44.125 C154.05798828 45.26066406 154.05347656 46.39632812 154.04882812 47.56640625 C154.03701615 50.37765638 154.02054507 53.1888023 154 56 C154.66445444 55.99631283 155.32890888 55.99262566 156.01349831 55.98882675 C172.18856688 55.9004511 188.36355888 55.83427851 204.53881264 55.79275131 C212.36108705 55.77213475 220.1832002 55.74403166 228.00537109 55.69824219 C234.82397679 55.65834645 241.64246569 55.63256059 248.46118486 55.62364602 C252.0709869 55.61843583 255.68045483 55.60620944 259.29014969 55.57707977 C263.32200123 55.54480792 267.3532736 55.54404233 271.38525391 55.54589844 C273.17629044 55.52432678 273.17629044 55.52432678 275.00350952 55.50231934 C281.11129525 55.53279296 285.35176834 55.57450362 290 60 C292.49724937 63.5511208 293.37460197 65.94063703 293.36914349 70.26921558 C293.37511663 71.31722271 293.38108978 72.36522983 293.38724393 73.44499475 C293.3785054 74.58993313 293.36976688 75.73487152 293.36076355 76.914505 C293.36332682 78.13567573 293.3658901 79.35684646 293.36853105 80.61502236 C293.37261843 84.00158888 293.36324204 87.3876354 293.34819686 90.77413905 C293.33524256 94.42711856 293.33962553 98.08008198 293.34190369 101.733078 C293.34347681 108.06110248 293.33406359 114.38903416 293.31719017 120.71703529 C293.29280996 129.86624939 293.2849959 139.01541861 293.2812262 148.16466167 C293.27466018 163.00864428 293.25469492 177.85257744 293.22631836 192.6965332 C293.19878169 207.11612704 293.17754619 221.53570744 293.16479492 235.95532227 C293.16400675 236.84413333 293.16321858 237.7329444 293.16240653 238.64868913 C293.15849142 243.10758911 293.15470029 247.56648918 293.15097082 252.02538931 C293.11987022 289.01696113 293.06703031 326.00847671 293 363 C294.09562256 363.29567871 295.19124512 363.59135742 296.32006836 363.89599609 C306.9711723 367.09139794 314.10624191 375.49168968 319.25 384.9375 C323.08818711 393.15989247 323.86308662 400.80258233 321.24609375 409.5078125 C317.0711203 420.93221685 309.13463226 429.86487149 298.15234375 435.17578125 C290.43702984 438.1302844 283.59508356 438.30498186 275.35375977 438.31884766 C273.97342854 438.32815649 272.5931029 438.33832657 271.21278381 438.34928894 C267.48192415 438.37649548 263.75110205 438.39171048 260.0201695 438.40471697 C256.11504151 438.42038859 252.20998976 438.44716589 248.30491638 438.4727478 C240.91740749 438.5194644 233.52988415 438.55624288 226.14230341 438.58942068 C217.72871102 438.62769248 209.31519535 438.67708934 200.90166771 438.72740483 C183.60116736 438.83061875 166.30062255 438.9199133 149 439 C153.54960775 443.57514197 158.10327322 448.14621687 162.65966797 452.71459961 C164.20648501 454.26641888 165.75240007 455.81913781 167.29736328 457.37280273 C169.52915787 459.6168441 171.76426845 461.85753804 174 464.09765625 C174.68054443 464.78336197 175.36108887 465.46906769 176.06225586 466.17555237 C179.93414257 470.04788212 183.91677763 473.71428882 188.0613308 477.29206848 C191.19321865 480.05120344 194.14562584 482.98182415 197.1027832 485.92578125 C197.76237534 486.57880219 198.42196747 487.23182312 199.10154724 487.90463257 C201.25414722 490.03773385 203.40289895 492.17464896 205.55078125 494.3125 C206.28991446 495.04755768 207.02904766 495.78261536 207.79057884 496.53994751 C211.69382215 500.42244198 215.59386062 504.30812419 219.49145508 508.19628906 C223.50899487 512.20271632 227.53808555 516.19731908 231.5698061 520.18946838 C234.67942628 523.27294608 237.78012974 526.36527453 240.87849998 529.46005249 C242.3602709 530.93696076 243.84541137 532.41049658 245.33400917 533.88052368 C247.41361653 535.93576489 249.48021341 538.0032963 251.54418945 540.07421875 C252.15668549 540.67390472 252.76918152 541.2735907 253.40023804 541.89144897 C257.53949282 546.08159971 260.50029976 550.16668312 261.28515625 556.1875 C260.60458723 561.72757065 258.2363307 565.36434306 254 569 C249.84137407 570.38620864 246.33925488 570.64614914 242 570 C234.32033896 565.96059507 228.26660078 558.54920155 222.19970703 552.45849609 C221.02978552 551.29128882 219.85943987 550.12450653 218.68870544 548.95811462 C215.52951434 545.8079942 212.3766254 542.65163745 209.22514963 539.49380064 C205.92058893 536.18415711 202.61112945 532.87941779 199.30245972 529.57388306 C193.75272651 524.02778081 188.20720699 518.47749159 182.6640625 512.92480469 C176.25570908 506.50554693 169.84015362 500.09355469 163.42085183 493.68524683 C157.90279485 488.17626193 152.38863992 482.66339409 146.87773597 477.14725363 C143.58897381 473.8553741 140.2988767 470.56485939 137.00525284 467.27784348 C133.91284914 464.19121217 130.82536966 461.09973876 127.74164009 458.00444221 C126.60897774 456.86913365 125.47460679 455.73552677 124.33841896 454.60374641 C122.78906903 453.05985422 121.24599947 451.50994553 119.70437622 449.95834351 C118.83906343 449.09227667 117.97375065 448.22620983 117.08221626 447.33389854 C114.25229582 444.16191909 113 442.27203581 113 438 C94.52 438 76.04 438 57 438 C57.04640625 446.72566406 57.0928125 455.45132812 57.140625 464.44140625 C57.16366258 470.67246891 57.18416743 476.90349956 57.20101547 483.13457775 C57.22317625 491.20578109 57.2513054 499.27681898 57.30175781 507.34790039 C57.3416857 513.73838813 57.367447 520.12875099 57.37635398 526.51936001 C57.38155876 529.90172632 57.39375034 533.28373543 57.42292023 536.66598701 C57.45195813 540.44624127 57.45595564 544.22575566 57.45410156 548.00610352 C57.46848267 549.12172668 57.48286377 550.23734985 57.49768066 551.38677979 C57.46358099 557.81241406 56.88239046 561.79905714 53 567 C48.30338225 570.30898069 44.55300933 570.52885803 39 570 C34.86671799 568.21517368 32.52427673 565.69626236 30 562 C29.00528064 558.95008525 28.87640256 556.15915514 28.87974548 552.96331787 C28.87768349 551.44052216 28.87768349 551.44052216 28.87557983 549.88696289 C28.87917511 548.77925537 28.88277039 547.67154785 28.88647461 546.53027344 C28.88632858 545.35926086 28.88618256 544.18824829 28.8860321 542.98175049 C28.88672928 539.10760654 28.89451263 535.23351056 28.90234375 531.359375 C28.90476379 528.67466254 28.90568139 525.98995014 28.90663147 523.30523682 C28.90973866 516.95882041 28.91794381 510.61242125 28.92798096 504.26601243 C28.94025798 496.33099076 28.94572944 488.39596629 28.95117188 480.4609375 C28.96090956 466.30727824 28.98094211 452.15365659 29 438 C11.18 438 -6.64 438 -25 438 C-25.66 440.31 -26.32 442.62 -27 445 C-28.72301674 447.34104919 -28.72301674 447.34104919 -30.83120728 449.43920898 C-31.63015411 450.2464743 -32.42910095 451.05373962 -33.2522583 451.88546753 C-34.56912628 453.17772751 -34.56912628 453.17772751 -35.91259766 454.49609375 C-36.83638214 455.42221466 -37.76016663 456.34833557 -38.71194458 457.30252075 C-41.2382959 459.83456351 -43.77982073 462.35085309 -46.32452822 464.86442947 C-48.99338489 467.5056432 -51.64837271 470.16072833 -54.30502319 472.81420898 C-58.77083813 477.270828 -63.24569586 481.71818944 -67.72705078 486.15917969 C-74.02635546 492.40179279 -80.30848645 498.66147087 -86.58756948 504.92441368 C-90.95684143 509.28118291 -95.3301775 513.63387197 -99.70430326 517.98576736 C-100.75947828 519.03559805 -101.81455038 520.08553219 -102.86951876 521.13557053 C-106.34616658 524.59558816 -109.82748084 528.05084191 -113.31103516 531.50390625 C-114.17680176 532.3654129 -115.04256836 533.22691956 -115.93457031 534.11453247 C-120.27516044 538.40936619 -124.67719065 542.56883338 -129.31832981 546.53828621 C-131.75602035 548.65713561 -134.01143257 550.93454085 -136.26953125 553.2421875 C-137.63174805 554.62277344 -137.63174805 554.62277344 -139.02148438 556.03125 C-140.42905495 557.46541568 -141.83657337 558.89963705 -143.2409668 560.33691406 C-144.62109409 561.74715236 -146.00771862 563.15102297 -147.39453125 564.5546875 C-148.20768799 565.38468262 -149.02084473 566.21467773 -149.85864258 567.06982422 C-153.47652834 570.33091245 -157.06069689 570.34545322 -161.71484375 570.27734375 C-165.33744393 569.83767775 -167.32756608 568.41791641 -170 566 C-172.6793361 562.07030706 -173.3514578 558.75335045 -173.49609375 554.125 C-172.28083937 548.91950092 -168.13984263 544.89068807 -164.45684814 541.21633911 C-163.551035 540.30777664 -162.64522186 539.39921417 -161.71195984 538.46311951 C-160.71594388 537.47417996 -159.71983167 536.48533734 -158.72363281 535.49658203 C-157.66843919 534.44195312 -156.61368689 533.38688249 -155.55934143 532.33140564 C-152.70669143 529.47818348 -149.84793156 526.63115584 -146.98801136 523.78522348 C-143.99621201 520.80595425 -141.0101019 517.82099368 -138.02337646 514.8366394 C-132.37158284 509.19105384 -126.71471181 503.55058454 -121.05598617 497.91194808 C-114.61191538 491.49025725 -108.17354475 485.06286438 -101.73564005 478.63499284 C-88.49674686 465.41698639 -75.25073367 452.20613609 -62 439 C-62.71230459 438.99761165 -63.42460918 438.99522329 -64.15849876 438.99276257 C-81.520125 438.93353105 -98.88160347 438.85792902 -116.24307823 438.76428509 C-124.63909014 438.71939035 -133.03506022 438.67996123 -141.43115234 438.65356445 C-148.75234823 438.63053304 -156.07341107 438.59707789 -163.39450133 438.55129844 C-167.26811078 438.5274353 -171.14158904 438.50866142 -175.01527023 438.50238609 C-178.66790718 438.49630375 -182.32020874 438.47619164 -185.9727211 438.44572449 C-187.93884621 438.43285946 -189.90504987 438.43450555 -191.87121582 438.4367218 C-204.08756149 438.30819389 -212.48762842 435.68368632 -222 428 C-222.65097656 427.47535156 -223.30195313 426.95070313 -223.97265625 426.41015625 C-230.52915386 420.51651334 -235.28093944 411.61299956 -236.23828125 402.80859375 C-236.60810388 390.9937338 -231.67022993 381.76197798 -224 373 C-220.29432219 369.53849476 -216.38016666 367.16410736 -211.859375 364.91772461 C-210.7760791 364.37866737 -210.7760791 364.37866737 -209.67089844 363.82872009 C-209.11950195 363.55524246 -208.56810547 363.28176483 -208 363 C-207.99940291 362.37421505 -207.99880582 361.74843011 -207.99819064 361.10368198 C-207.96230075 324.01884188 -207.90566805 286.9340874 -207.82207905 249.84932303 C-207.81206153 245.39702623 -207.80221741 240.94472906 -207.79248047 236.49243164 C-207.7905391 235.60605523 -207.78859772 234.71967881 -207.78659752 233.80644251 C-207.75557203 219.45225321 -207.73859534 205.09807991 -207.72680578 190.7438634 C-207.71439706 176.01633233 -207.68690198 161.28888522 -207.64538693 146.56140715 C-207.62024352 137.47292656 -207.60688333 128.38458519 -207.60857043 119.29606933 C-207.60860017 113.06467439 -207.59398279 106.83342131 -207.56783572 100.60208165 C-207.55318042 97.00627761 -207.54499464 93.41076452 -207.55419731 89.81493568 C-207.56400825 85.9154522 -207.54298152 82.01647996 -207.51898193 78.11705017 C-207.52674235 76.98182842 -207.53450277 75.84660666 -207.54249835 74.67698425 C-207.47217511 68.23594905 -206.87169779 64.22412956 -203 59 C-197.57167156 54.77432145 -190.94630807 55.6001567 -184.38525391 55.65942383 C-183.11641357 55.65898575 -181.84757324 55.65854767 -180.5402832 55.65809631 C-177.07367824 55.65723796 -173.60738669 55.67483741 -170.14085436 55.69581819 C-166.51338332 55.71461189 -162.88590455 55.71633754 -159.25839233 55.71989441 C-152.39490863 55.72920699 -145.53156883 55.75381003 -138.6681484 55.78394288 C-130.85197517 55.81751147 -123.03579495 55.83397906 -115.21956754 55.84902918 C-99.14628092 55.88036039 -83.07319243 55.9353625 -67 56 C-67 47.42 -67 38.84 -67 30 C-50.83 30 -34.66 30 -18 30 C-18 23.07 -18 16.14 -18 9 C-12.76462881 1.14694321 -9.27059128 -1.26417154 0 0 Z " fill="#ACFECA" transform="translate(259,14)"/>
<path d="M0 0 C3.23300086 1.47593517 5.72160787 3.26592945 8 6 C10.5320172 13.59605161 9 21.99305857 9 30 C31.77 30 54.54 30 78 30 C78 23.73 78 17.46 78 11 C82.76315789 1.47368421 82.76315789 1.47368421 87 0 C92.02204768 -0.66455907 95.81977068 -0.55792659 100.4375 1.625 C103 4 103 4 106 10 C106 16.6 106 23.2 106 30 C121.51 30 137.02 30 153 30 C154.30475618 32.60951236 154.11301572 34.52701285 154.09765625 37.4453125 C154.09443359 38.52167969 154.09121094 39.59804688 154.08789062 40.70703125 C154.07951172 41.83496094 154.07113281 42.96289062 154.0625 44.125 C154.05798828 45.26066406 154.05347656 46.39632812 154.04882812 47.56640625 C154.03701615 50.37765638 154.02054507 53.1888023 154 56 C154.66445444 55.99631283 155.32890888 55.99262566 156.01349831 55.98882675 C172.18856688 55.9004511 188.36355888 55.83427851 204.53881264 55.79275131 C212.36108705 55.77213475 220.1832002 55.74403166 228.00537109 55.69824219 C234.82397679 55.65834645 241.64246569 55.63256059 248.46118486 55.62364602 C252.0709869 55.61843583 255.68045483 55.60620944 259.29014969 55.57707977 C263.32200123 55.54480792 267.3532736 55.54404233 271.38525391 55.54589844 C273.17629044 55.52432678 273.17629044 55.52432678 275.00350952 55.50231934 C281.11129525 55.53279296 285.35176834 55.57450362 290 60 C292.49724937 63.5511208 293.37460197 65.94063703 293.36914349 70.26921558 C293.37511663 71.31722271 293.38108978 72.36522983 293.38724393 73.44499475 C293.3785054 74.58993313 293.36976688 75.73487152 293.36076355 76.914505 C293.36332682 78.13567573 293.3658901 79.35684646 293.36853105 80.61502236 C293.37261843 84.00158888 293.36324204 87.3876354 293.34819686 90.77413905 C293.33524256 94.42711856 293.33962553 98.08008198 293.34190369 101.733078 C293.34347681 108.06110248 293.33406359 114.38903416 293.31719017 120.71703529 C293.29280996 129.86624939 293.2849959 139.01541861 293.2812262 148.16466167 C293.27466018 163.00864428 293.25469492 177.85257744 293.22631836 192.6965332 C293.19878169 207.11612704 293.17754619 221.53570744 293.16479492 235.95532227 C293.16400675 236.84413333 293.16321858 237.7329444 293.16240653 238.64868913 C293.15849142 243.10758911 293.15470029 247.56648918 293.15097082 252.02538931 C293.11987022 289.01696113 293.06703031 326.00847671 293 363 C294.09562256 363.29567871 295.19124512 363.59135742 296.32006836 363.89599609 C306.9711723 367.09139794 314.10624191 375.49168968 319.25 384.9375 C323.08818711 393.15989247 323.86308662 400.80258233 321.24609375 409.5078125 C317.0711203 420.93221685 309.13463226 429.86487149 298.15234375 435.17578125 C290.43702984 438.1302844 283.59508356 438.30498186 275.35375977 438.31884766 C273.97342854 438.32815649 272.5931029 438.33832657 271.21278381 438.34928894 C267.48192415 438.37649548 263.75110205 438.39171048 260.0201695 438.40471697 C256.11504151 438.42038859 252.20998976 438.44716589 248.30491638 438.4727478 C240.91740749 438.5194644 233.52988415 438.55624288 226.14230341 438.58942068 C217.72871102 438.62769248 209.31519535 438.67708934 200.90166771 438.72740483 C183.60116736 438.83061875 166.30062255 438.9199133 149 439 C153.54960775 443.57514197 158.10327322 448.14621687 162.65966797 452.71459961 C164.20648501 454.26641888 165.75240007 455.81913781 167.29736328 457.37280273 C169.52915787 459.6168441 171.76426845 461.85753804 174 464.09765625 C174.68054443 464.78336197 175.36108887 465.46906769 176.06225586 466.17555237 C179.93414257 470.04788212 183.91677763 473.71428882 188.0613308 477.29206848 C191.19321865 480.05120344 194.14562584 482.98182415 197.1027832 485.92578125 C197.76237534 486.57880219 198.42196747 487.23182312 199.10154724 487.90463257 C201.25414722 490.03773385 203.40289895 492.17464896 205.55078125 494.3125 C206.28991446 495.04755768 207.02904766 495.78261536 207.79057884 496.53994751 C211.69382215 500.42244198 215.59386062 504.30812419 219.49145508 508.19628906 C223.50899487 512.20271632 227.53808555 516.19731908 231.5698061 520.18946838 C234.67942628 523.27294608 237.78012974 526.36527453 240.87849998 529.46005249 C242.3602709 530.93696076 243.84541137 532.41049658 245.33400917 533.88052368 C247.41361653 535.93576489 249.48021341 538.0032963 251.54418945 540.07421875 C252.15668549 540.67390472 252.76918152 541.2735907 253.40023804 541.89144897 C257.53949282 546.08159971 260.50029976 550.16668312 261.28515625 556.1875 C260.60458723 561.72757065 258.2363307 565.36434306 254 569 C249.84137407 570.38620864 246.33925488 570.64614914 242 570 C234.32033896 565.96059507 228.26660078 558.54920155 222.19970703 552.45849609 C221.02978552 551.29128882 219.85943987 550.12450653 218.68870544 548.95811462 C215.52951434 545.8079942 212.3766254 542.65163745 209.22514963 539.49380064 C205.92058893 536.18415711 202.61112945 532.87941779 199.30245972 529.57388306 C193.75272651 524.02778081 188.20720699 518.47749159 182.6640625 512.92480469 C176.25570908 506.50554693 169.84015362 500.09355469 163.42085183 493.68524683 C157.90279485 488.17626193 152.38863992 482.66339409 146.87773597 477.14725363 C143.58897381 473.8553741 140.2988767 470.56485939 137.00525284 467.27784348 C133.91284914 464.19121217 130.82536966 461.09973876 127.74164009 458.00444221 C126.60897774 456.86913365 125.47460679 455.73552677 124.33841896 454.60374641 C122.78906903 453.05985422 121.24599947 451.50994553 119.70437622 449.95834351 C118.83906343 449.09227667 117.97375065 448.22620983 117.08221626 447.33389854 C114.25229582 444.16191909 113 442.27203581 113 438 C94.52 438 76.04 438 57 438 C57.04640625 446.72566406 57.0928125 455.45132812 57.140625 464.44140625 C57.16366258 470.67246891 57.18416743 476.90349956 57.20101547 483.13457775 C57.22317625 491.20578109 57.2513054 499.27681898 57.30175781 507.34790039 C57.3416857 513.73838813 57.367447 520.12875099 57.37635398 526.51936001 C57.38155876 529.90172632 57.39375034 533.28373543 57.42292023 536.66598701 C57.45195813 540.44624127 57.45595564 544.22575566 57.45410156 548.00610352 C57.46848267 549.12172668 57.48286377 550.23734985 57.49768066 551.38677979 C57.46358099 557.81241406 56.88239046 561.79905714 53 567 C48.30338225 570.30898069 44.55300933 570.52885803 39 570 C34.86671799 568.21517368 32.52427673 565.69626236 30 562 C29.00528064 558.95008525 28.87640256 556.15915514 28.87974548 552.96331787 C28.87768349 551.44052216 28.87768349 551.44052216 28.87557983 549.88696289 C28.87917511 548.77925537 28.88277039 547.67154785 28.88647461 546.53027344 C28.88632858 545.35926086 28.88618256 544.18824829 28.8860321 542.98175049 C28.88672928 539.10760654 28.89451263 535.23351056 28.90234375 531.359375 C28.90476379 528.67466254 28.90568139 525.98995014 28.90663147 523.30523682 C28.90973866 516.95882041 28.91794381 510.61242125 28.92798096 504.26601243 C28.94025798 496.33099076 28.94572944 488.39596629 28.95117188 480.4609375 C28.96090956 466.30727824 28.98094211 452.15365659 29 438 C11.18 438 -6.64 438 -25 438 C-25.66 440.31 -26.32 442.62 -27 445 C-28.72301674 447.34104919 -28.72301674 447.34104919 -30.83120728 449.43920898 C-31.63015411 450.2464743 -32.42910095 451.05373962 -33.2522583 451.88546753 C-34.56912628 453.17772751 -34.56912628 453.17772751 -35.91259766 454.49609375 C-36.83638214 455.42221466 -37.76016663 456.34833557 -38.71194458 457.30252075 C-41.2382959 459.83456351 -43.77982073 462.35085309 -46.32452822 464.86442947 C-48.99338489 467.5056432 -51.64837271 470.16072833 -54.30502319 472.81420898 C-58.77083813 477.270828 -63.24569586 481.71818944 -67.72705078 486.15917969 C-74.02635546 492.40179279 -80.30848645 498.66147087 -86.58756948 504.92441368 C-90.95684143 509.28118291 -95.3301775 513.63387197 -99.70430326 517.98576736 C-100.75947828 519.03559805 -101.81455038 520.08553219 -102.86951876 521.13557053 C-106.34616658 524.59558816 -109.82748084 528.05084191 -113.31103516 531.50390625 C-114.17680176 532.3654129 -115.04256836 533.22691956 -115.93457031 534.11453247 C-120.27516044 538.40936619 -124.67719065 542.56883338 -129.31832981 546.53828621 C-131.75602035 548.65713561 -134.01143257 550.93454085 -136.26953125 553.2421875 C-137.63174805 554.62277344 -137.63174805 554.62277344 -139.02148438 556.03125 C-140.42905495 557.46541568 -141.83657337 558.89963705 -143.2409668 560.33691406 C-144.62109409 561.74715236 -146.00771862 563.15102297 -147.39453125 564.5546875 C-148.20768799 565.38468262 -149.02084473 566.21467773 -149.85864258 567.06982422 C-153.47652834 570.33091245 -157.06069689 570.34545322 -161.71484375 570.27734375 C-165.33744393 569.83767775 -167.32756608 568.41791641 -170 566 C-172.6793361 562.07030706 -173.3514578 558.75335045 -173.49609375 554.125 C-172.28083937 548.91950092 -168.13984263 544.89068807 -164.45684814 541.21633911 C-163.551035 540.30777664 -162.64522186 539.39921417 -161.71195984 538.46311951 C-160.71594388 537.47417996 -159.71983167 536.48533734 -158.72363281 535.49658203 C-157.66843919 534.44195312 -156.61368689 533.38688249 -155.55934143 532.33140564 C-152.70669143 529.47818348 -149.84793156 526.63115584 -146.98801136 523.78522348 C-143.99621201 520.80595425 -141.0101019 517.82099368 -138.02337646 514.8366394 C-132.37158284 509.19105384 -126.71471181 503.55058454 -121.05598617 497.91194808 C-114.61191538 491.49025725 -108.17354475 485.06286438 -101.73564005 478.63499284 C-88.49674686 465.41698639 -75.25073367 452.20613609 -62 439 C-62.71230459 438.99761165 -63.42460918 438.99522329 -64.15849876 438.99276257 C-81.520125 438.93353105 -98.88160347 438.85792902 -116.24307823 438.76428509 C-124.63909014 438.71939035 -133.03506022 438.67996123 -141.43115234 438.65356445 C-148.75234823 438.63053304 -156.07341107 438.59707789 -163.39450133 438.55129844 C-167.26811078 438.5274353 -171.14158904 438.50866142 -175.01527023 438.50238609 C-178.66790718 438.49630375 -182.32020874 438.47619164 -185.9727211 438.44572449 C-187.93884621 438.43285946 -189.90504987 438.43450555 -191.87121582 438.4367218 C-204.08756149 438.30819389 -212.48762842 435.68368632 -222 428 C-222.65097656 427.47535156 -223.30195313 426.95070313 -223.97265625 426.41015625 C-230.52915386 420.51651334 -235.28093944 411.61299956 -236.23828125 402.80859375 C-236.60810388 390.9937338 -231.67022993 381.76197798 -224 373 C-220.29432219 369.53849476 -216.38016666 367.16410736 -211.859375 364.91772461 C-210.7760791 364.37866737 -210.7760791 364.37866737 -209.67089844 363.82872009 C-209.11950195 363.55524246 -208.56810547 363.28176483 -208 363 C-207.99940291 362.37421505 -207.99880582 361.74843011 -207.99819064 361.10368198 C-207.96230075 324.01884188 -207.90566805 286.9340874 -207.82207905 249.84932303 C-207.81206153 245.39702623 -207.80221741 240.94472906 -207.79248047 236.49243164 C-207.7905391 235.60605523 -207.78859772 234.71967881 -207.78659752 233.80644251 C-207.75557203 219.45225321 -207.73859534 205.09807991 -207.72680578 190.7438634 C-207.71439706 176.01633233 -207.68690198 161.28888522 -207.64538693 146.56140715 C-207.62024352 137.47292656 -207.60688333 128.38458519 -207.60857043 119.29606933 C-207.60860017 113.06467439 -207.59398279 106.83342131 -207.56783572 100.60208165 C-207.55318042 97.00627761 -207.54499464 93.41076452 -207.55419731 89.81493568 C-207.56400825 85.9154522 -207.54298152 82.01647996 -207.51898193 78.11705017 C-207.52674235 76.98182842 -207.53450277 75.84660666 -207.54249835 74.67698425 C-207.47217511 68.23594905 -206.87169779 64.22412956 -203 59 C-197.57167156 54.77432145 -190.94630807 55.6001567 -184.38525391 55.65942383 C-183.11641357 55.65898575 -181.84757324 55.65854767 -180.5402832 55.65809631 C-177.07367824 55.65723796 -173.60738669 55.67483741 -170.14085436 55.69581819 C-166.51338332 55.71461189 -162.88590455 55.71633754 -159.25839233 55.71989441 C-152.39490863 55.72920699 -145.53156883 55.75381003 -138.6681484 55.78394288 C-130.85197517 55.81751147 -123.03579495 55.83397906 -115.21956754 55.84902918 C-99.14628092 55.88036039 -83.07319243 55.9353625 -67 56 C-67 47.42 -67 38.84 -67 30 C-50.83 30 -34.66 30 -18 30 C-18 23.07 -18 16.14 -18 9 C-12.76462881 1.14694321 -9.27059128 -1.26417154 0 0 Z M-180 83 C-180 172.43 -180 261.86 -180 354 C-32.82 354 114.36 354 266 354 C266 264.57 266 175.14 266 83 C232.01 83 198.02 83 163 83 C162.67 92.24 162.34 101.48 162 111 C157.3246824 118.0129764 157.3246824 118.0129764 153 119 C150.01025424 119.26330814 147.04230251 119.27416289 144.0423584 119.26069641 C142.68754435 119.26643473 142.68754435 119.26643473 141.30536032 119.27228898 C138.27838416 119.28260912 135.25159804 119.2786287 132.22460938 119.2746582 C130.05467045 119.27900517 127.88473307 119.28418827 125.71479797 119.29014587 C119.82030095 119.30354752 113.92586801 119.30411332 108.03135872 119.30158257 C103.11310925 119.30051383 98.1948728 119.30539367 93.27662611 119.310188 C81.67643227 119.32128685 70.0762708 119.32171821 58.47607422 119.31567383 C46.50121467 119.3096303 34.5265236 119.32195382 22.55168104 119.3432439 C12.27557102 119.36084331 1.99949843 119.36686395 -8.27662611 119.36360615 C-14.41640889 119.36179078 -20.55610791 119.36445498 -26.69587708 119.37832069 C-32.46771668 119.39086767 -38.23937281 119.38898459 -44.01120949 119.37590981 C-46.13123956 119.37353778 -48.25128242 119.37630099 -50.37129784 119.38453293 C-53.26186611 119.39494893 -56.15181285 119.38694111 -59.0423584 119.3742218 C-59.88428317 119.38159609 -60.72620793 119.38897037 -61.59364557 119.39656812 C-66.17668992 119.35404486 -69.3954467 119.13690654 -73 116 C-76 110 -76 110 -77 83 C-110.99 83 -144.98 83 -180 83 Z " fill="#014463" transform="translate(259,14)"/>
<path d="M0 0 C0.827084 -0.00436032 1.65416799 -0.00872064 2.50631514 -0.0132131 C5.2719213 -0.02414303 8.03702617 -0.0137579 10.80262852 -0.00342751 C12.80777429 -0.00688496 14.81291817 -0.01165011 16.81805807 -0.01760924 C22.32382438 -0.03013685 27.82943475 -0.02394075 33.33520162 -0.01465058 C39.27463138 -0.00786765 45.21403418 -0.01833761 51.1534586 -0.02659035 C62.11501004 -0.0391667 73.07651511 -0.03806651 84.03806835 -0.02985594 C94.16529811 -0.02230762 104.29250964 -0.02033994 114.41974163 -0.02392387 C115.42760437 -0.02426761 115.42760437 -0.02426761 116.45582798 -0.02461828 C119.1833727 -0.02555231 121.91091741 -0.02650751 124.63846211 -0.02749758 C150.22315995 -0.03667381 175.80782613 -0.0283556 201.39251908 -0.01220688 C224.11823353 0.00202822 246.84389754 0.00075732 269.56961155 -0.01358986 C295.1061706 -0.02965772 320.64270168 -0.03602139 346.17926508 -0.02675307 C348.90213429 -0.02579093 351.62500351 -0.02485241 354.34787273 -0.02392387 C355.01830506 -0.02368664 355.68873738 -0.02344941 356.37948584 -0.02320499 C366.49914762 -0.01979405 376.61878917 -0.02378068 386.73844814 -0.03136253 C398.24692882 -0.03994196 409.75535284 -0.03750374 421.26382678 -0.0215203 C427.13627942 -0.01363336 433.00862969 -0.01055329 438.88108158 -0.02046776 C444.25678359 -0.02940632 449.63228832 -0.02449542 455.00797243 -0.0085351 C456.95269689 -0.00518376 458.89743801 -0.0068893 460.84215175 -0.01416247 C463.48686727 -0.02329491 466.13090849 -0.01391809 468.77558899 0 C469.90626196 -0.01053525 469.90626196 -0.01053525 471.05977681 -0.02128333 C480.06079292 0.07329006 487.98064874 3.06251315 494.45071507 9.37752342 C499.78203577 16.36247958 501.43840779 22.6146217 500.45071507 31.37752342 C498.2248811 38.56467889 493.93570425 44.48446463 487.45071507 48.37752342 C481.49114293 50.84233635 476.15035304 51.81524256 469.7343235 51.76063347 C468.90132014 51.76559298 468.06831677 51.7705525 467.21007088 51.7756623 C464.43035128 51.78857294 461.65111562 51.78024819 458.87138462 51.7719326 C456.85371322 51.77682363 454.83604462 51.78301442 452.81838077 51.79039049 C447.28260928 51.80678587 441.74698024 51.80447287 436.21119297 51.79901552 C430.23767118 51.79634489 424.26418732 51.81087768 418.29068089 51.82311058 C406.59170021 51.84416447 394.89275808 51.84872426 383.19376249 51.8469227 C373.68557025 51.84554888 364.17739305 51.84937092 354.66920376 51.85684776 C353.30249163 51.8578981 351.9357795 51.85894572 350.56906737 51.85999063 C349.55140321 51.86076964 349.55140321 51.86076964 348.51318018 51.8615644 C347.83348799 51.86208454 347.15379581 51.86260468 346.45350689 51.86314058 C345.77266622 51.86366458 345.09182554 51.86418857 344.39035334 51.86472844 C325.24577083 51.87930818 306.10119385 51.88759574 286.95660591 51.88297844 C285.8743974 51.88272051 285.8743974 51.88272051 284.7703261 51.88245736 C281.11373055 51.88156849 277.45713503 51.88062368 273.8005395 51.87965935 C273.07434504 51.87946832 272.34815057 51.87927729 271.59995021 51.87908047 C270.13140979 51.87869337 268.66286937 51.87830305 267.19432894 51.87790949 C244.34086616 51.8719387 221.48750463 51.88738269 198.63406467 51.91951561 C172.95025806 51.95559763 147.26651563 51.97492469 121.58268207 51.9699769 C118.8438021 51.96950693 116.10492212 51.96909668 113.36604214 51.9687252 C112.69167429 51.96862282 112.01730643 51.96852043 111.32250319 51.96841494 C101.14621761 51.96722055 90.97000144 51.97918147 80.79373455 51.99786949 C69.22013862 52.0191135 57.64668543 52.02248882 46.07308216 52.0035699 C40.16802463 51.99440369 34.26325705 51.99329665 28.35822201 52.01392555 C22.95155613 52.03260465 17.54541831 52.02816598 12.13877272 52.00537974 C10.18396347 52.00118633 8.22911398 52.00541876 6.27434725 52.01897568 C-6.03160091 52.09850231 -14.87589575 51.52502587 -24.48678493 43.06502342 C-30.02118631 36.98240304 -31.25775066 30.52882144 -31.02194118 22.40877342 C-29.94247112 15.48589102 -26.0546017 10.26766951 -20.67428493 5.94002342 C-14.29318076 1.3130323 -7.67487249 -0.07129058 0 0 Z " fill="#C6BCB6" transform="translate(67.54928493499756,387.6224765777588)"/>
<path d="M0 0 C0.80251346 0.00291284 1.60502691 0.00582568 2.43185896 0.00882679 C3.27800872 0.00797237 4.12415848 0.00711794 4.99594915 0.00623763 C7.85350793 0.00458022 10.71100901 0.01010843 13.56856245 0.01555592 C15.60809287 0.01583776 17.64762339 0.01568012 19.68715376 0.01511341 C25.2427113 0.01482532 30.79824745 0.02072393 36.3538 0.02768737 C42.15275761 0.03391897 47.95171565 0.03452455 53.7506761 0.03571278 C64.7402222 0.03882667 75.72975841 0.04704083 86.71930015 0.05706227 C99.22694378 0.06822162 111.73458788 0.07373341 124.24223524 0.0787577 C149.97919156 0.0892234 175.71613431 0.10756959 201.45308393 0.12908131 C201.45308393 22.23908131 201.45308393 44.34908131 201.45308393 67.12908131 C132.81308393 67.12908131 64.17308393 67.12908131 -6.54691607 67.12908131 C-6.54691607 0.01802801 -6.54691607 0.01802801 0 0 Z " fill="#7F7F80" transform="translate(204.54691606760025,49.870918691158295)"/>
<path d="M0 0 C1.14484452 -0.00482883 2.28968904 -0.00965766 3.46922582 -0.01463282 C6.64287372 -0.02395351 9.8158886 -0.0153329 12.98949015 0.00089574 C16.41352179 0.01405885 19.83749673 0.00415087 23.26153564 -0.00286865 C29.9672845 -0.01295036 36.67283604 -0.00167267 43.37856037 0.01683195 C51.18548791 0.03760104 58.9923728 0.03745955 66.79932278 0.03648679 C80.72696954 0.03548556 94.65452445 0.05380874 108.58213806 0.08285522 C122.10136081 0.11103546 135.62050272 0.12519653 149.13975525 0.12387085 C149.97253878 0.12379094 150.80532231 0.12371102 151.66334171 0.12362869 C152.4946762 0.12354798 153.32601069 0.12346727 154.18253714 0.12338412 C169.56807774 0.12200486 184.95358395 0.1337814 200.3391134 0.15169055 C205.78301298 0.15772621 211.22690624 0.15985002 216.67080879 0.16075516 C223.30285442 0.16211867 229.9348421 0.17103743 236.56686313 0.18942077 C239.95163403 0.19866195 243.33633074 0.20474585 246.72111511 0.20223236 C250.38700357 0.20125503 254.05265091 0.21252211 257.71850586 0.22705078 C258.79290942 0.22395358 259.86731298 0.22085637 260.97427422 0.21766531 C261.95450568 0.22411421 262.93473714 0.2305631 263.94467258 0.23720741 C265.21418903 0.23932069 265.21418903 0.23932069 266.50935227 0.24147666 C269.0698514 0.52480543 270.63303376 1.10384404 272.79576111 2.49447632 C274.79576111 5.49447632 274.79576111 5.49447632 274.67076111 8.99447632 C273.79576111 12.49447632 273.79576111 12.49447632 272.04639339 14.18945652 C269.42692879 15.70834221 267.92158207 15.87116025 264.91064453 15.87479305 C263.92282958 15.88323299 262.93501463 15.89167293 261.91726589 15.90036863 C260.83439832 15.89435859 259.75153074 15.88834854 258.635849 15.88215637 C257.4836918 15.88754191 256.3315346 15.89292745 255.14446354 15.89847618 C251.94586967 15.91032092 248.74760875 15.90867799 245.54901171 15.90130937 C242.09973243 15.89658657 238.65050949 15.90907959 235.20124817 15.91932678 C228.44394155 15.9365371 221.68672782 15.93735026 214.92940497 15.93211388 C209.43848714 15.92807541 203.94759681 15.92951187 198.4566803 15.93486214 C197.28524777 15.93598477 197.28524777 15.93598477 196.09014994 15.93713008 C194.50374499 15.93866153 192.91734005 15.94019987 191.33093512 15.94174505 C176.44885525 15.95547794 161.56682792 15.95002666 146.68474925 15.93855984 C133.06268233 15.92862459 119.44075118 15.94157172 105.8187052 15.96549403 C91.83803168 15.98986156 77.85742145 15.99949881 63.8767271 15.9928413 C56.02500142 15.98934411 48.1733802 15.9916141 40.32167053 16.00909233 C33.63833071 16.02378496 26.95516893 16.02448837 20.2718327 16.00702142 C16.86064895 15.99848495 13.44978366 15.9964257 10.03861618 16.01167297 C6.34399728 16.02477673 2.65025358 16.01342871 -1.04432678 15.99568176 C-2.66862814 16.01008927 -2.66862814 16.01008927 -4.32574368 16.02478784 C-11.53044894 15.95320655 -11.53044894 15.95320655 -14.86657715 13.68190098 C-16.86733949 10.41013448 -16.80670558 8.24315792 -16.20423889 4.49447632 C-11.76916078 -0.79371944 -6.36735598 -0.06109257 0 0 Z " fill="#25B8A4" transform="translate(235.20423889160156,330.5055236816406)"/>
<path d="M0 0 C1.5395787 -0.00845947 1.5395787 -0.00845947 3.11026001 -0.01708984 C4.8059462 -0.01101715 4.8059462 -0.01101715 6.53588867 -0.00482178 C8.31641129 -0.01007874 8.31641129 -0.01007874 10.13290405 -0.01544189 C13.39320117 -0.0227505 16.65333666 -0.0210171 19.91363144 -0.01468372 C23.32133074 -0.00962951 26.72901904 -0.01431356 30.13671875 -0.01745605 C35.85996446 -0.0210974 41.5831586 -0.01629222 47.30639648 -0.0067749 C53.92861851 0.00411 60.5507174 0.00058454 67.17293644 -0.01042771 C72.85280189 -0.01949582 78.53263022 -0.02078821 84.21250057 -0.01555037 C87.607396 -0.01242804 91.00223351 -0.01202851 94.39712524 -0.01862335 C98.18044468 -0.02367885 101.96352466 -0.0159919 105.74682617 -0.00482178 C106.87728363 -0.00887024 108.00774109 -0.0129187 109.17245483 -0.01708984 C110.19884064 -0.0114502 111.22522644 -0.00581055 112.28271484 0 C113.62555794 0.00113108 113.62555794 0.00113108 114.99552917 0.002285 C117.14135742 0.25396729 117.14135742 0.25396729 119.14135742 2.25396729 C119.39135742 4.75396729 119.39135742 4.75396729 119.14135742 7.25396729 C117.14135742 9.25396729 117.14135742 9.25396729 114.99552917 9.50285625 C114.10030045 9.50231149 113.20507172 9.50176672 112.28271484 9.50120544 C111.25632904 9.50539993 110.22994324 9.50959442 109.17245483 9.51391602 C108.04199738 9.50829651 106.91153992 9.502677 105.74682617 9.49688721 C104.5598111 9.49878555 103.37279602 9.5006839 102.14981079 9.50263977 C98.88950673 9.5057157 95.62936873 9.49982416 92.3690834 9.48968673 C88.96138916 9.48091674 85.55369932 9.48266347 82.14599609 9.48304749 C76.42274689 9.48211034 70.69955064 9.47341971 64.97631836 9.45977783 C58.35412481 9.44405178 51.73198928 9.4387797 45.1097784 9.43951339 C38.74632396 9.44012325 32.38288846 9.43502158 26.0194397 9.42672157 C23.30815483 9.42318601 20.59687666 9.42135793 17.8855896 9.42082787 C14.10232599 9.41866931 10.31913647 9.40993551 6.53588867 9.39923096 C5.40543121 9.39968414 4.27497375 9.40013733 3.11026001 9.40060425 C2.08387421 9.39633926 1.0574884 9.39207428 0 9.38768005 C-0.89522873 9.38600421 -1.79045746 9.38432837 -2.71281433 9.38260174 C-4.85864258 9.25396729 -4.85864258 9.25396729 -6.85864258 8.25396729 C-6.98364258 5.37896729 -6.98364258 5.37896729 -6.85864258 2.25396729 C-4.33299976 -0.27167553 -3.49577823 0.00294449 0 0 Z " fill="#CBCBCB" transform="translate(278.858642578125,98.74603271484375)"/>
<path d="M0 0 C1.04800781 -0.02320313 1.04800781 -0.02320313 2.1171875 -0.046875 C5.72531787 -0.01964383 7.87041702 0.42078195 10.96484375 2.3125 C13 4.5 13 4.5 13.5625 8 C13 11.5 13 11.5 11.52734375 13.6875 C7.78901572 16.36846477 4.48895924 16.08605034 0 16 C-0.80695313 16.01546875 -1.61390625 16.0309375 -2.4453125 16.046875 C-6.2745336 16.02159961 -8.35576323 15.96201833 -11.52734375 13.6875 C-13.71174802 10.44276156 -13.61295932 8.31396909 -13 4.5 C-9.09479353 0.30246522 -5.48294253 -0.12139356 0 0 Z " fill="#26B8A4" transform="translate(198,330.5)"/>
<path d="M0 0 C1.71703125 -0.01160156 1.71703125 -0.01160156 3.46875 -0.0234375 C6.5 0.375 6.5 0.375 8.3828125 1.70703125 C10.12294858 4.30506659 9.88701464 6.34338533 9.5 9.375 C5.94223788 11.74684142 4.21979393 11.67324394 0 11.6875 C-1.71703125 11.71263672 -1.71703125 11.71263672 -3.46875 11.73828125 C-6.5 11.375 -6.5 11.375 -8.3828125 10.01171875 C-9.98552062 7.66369531 -9.9168201 6.15380066 -9.5 3.375 C-6.98406769 -0.30213183 -4.22404134 -0.02854082 0 0 Z " fill="#C8C8C8" transform="translate(253.5,97.625)"/>
</svg>
